<svg width="45" height="45" viewBox="0 0 45 45" fill="none" xmlns="http://www.w3.org/2000/svg">
<path d="M22.4181 0.0203904C16.381 -0.020655 15.6217 0.00199138 13.249 0.0915339C10.8762 0.186638 9.25804 0.548278 7.83888 1.08925C6.34972 1.63621 4.9987 2.50321 3.88107 3.62911C2.74007 4.73133 1.85478 6.07044 1.28762 7.55202C0.727422 8.96092 0.341014 10.5768 0.216493 12.9397C0.0946587 15.3165 0.0617084 16.0727 0.0206063 22.1181C-0.020458 28.158 0.00220724 28.9145 0.0917497 31.2873C0.186873 33.6572 0.548512 35.2754 1.08948 36.6946C1.6496 38.1611 2.40032 39.4065 3.62935 40.6524C4.8556 41.8982 6.09065 42.6686 7.54948 43.2458C8.96393 43.806 10.5742 44.1924 12.9427 44.317C15.3168 44.4388 16.073 44.4717 22.1156 44.5128C28.1582 44.5539 28.912 44.5312 31.2875 44.4417C33.6547 44.3465 35.2784 43.9849 36.6976 43.444C38.1857 42.8966 39.5358 42.0297 40.6526 40.9041C41.8985 39.6751 42.6661 38.44 43.2461 36.9812C43.8035 35.5695 44.1899 33.9564 44.3172 31.5879C44.439 29.2167 44.472 28.4605 44.5131 22.4179C44.5541 16.3752 44.5315 15.6187 44.4419 13.2432C44.3468 10.876 43.9824 9.255 43.4442 7.83864C42.8972 6.34949 42.0302 4.99846 40.9043 3.88083C39.8021 2.73984 38.463 1.85454 36.9814 1.28739C35.567 0.727149 33.9511 0.340741 31.5854 0.216202C29.2113 0.0943861 28.4579 0.0614547 22.4125 0.0203526L22.4181 0.0203904ZM20.397 4.01671L22.3936 4.03029C28.3333 4.07067 29.0367 4.09492 31.3802 4.21931C33.5485 4.33138 34.7251 4.70368 35.5072 5.01212C36.5417 5.42238 37.2809 5.91129 38.0542 6.6952C38.8276 7.47911 39.3036 8.22207 39.6997 9.26482C40.0003 10.0483 40.3538 11.2298 40.4364 13.3995C40.5289 15.7444 40.5464 16.4481 40.506 22.385C40.4656 28.322 40.4386 29.0282 40.3142 31.3716C40.2021 33.54 39.8298 34.7138 39.5214 35.4959C39.1557 36.4581 38.5808 37.3271 37.8383 38.0401C37.0544 38.8134 36.3115 39.2895 35.2687 39.6856C34.488 39.9862 33.3065 40.3397 31.134 40.425C28.7891 40.5148 28.0854 40.535 22.1457 40.4946C16.206 40.4542 15.4998 40.4244 13.1563 40.3028C10.988 40.1879 9.81419 39.8184 9.03209 39.5072C8.06913 39.1427 7.19918 38.5687 6.48508 37.8269C5.75104 37.1034 5.18708 36.2256 4.83401 35.2573C4.53622 34.4738 4.17995 33.2923 4.09737 31.1226C4.00764 28.7777 3.99018 28.074 4.03058 22.1315C4.07098 16.189 4.09798 15.4912 4.21958 13.1477C4.33444 10.9793 4.70395 9.80276 5.01517 9.02066C5.42544 7.98617 5.91434 7.24699 6.69825 6.47367C7.48216 5.70034 8.22512 5.2243 9.26787 4.82816C10.0541 4.5276 11.2329 4.1741 13.4025 4.08874C15.4554 4.00815 16.2509 3.98574 20.397 4.01115L20.397 4.01671ZM34.2424 7.80389C33.8918 7.80151 33.5442 7.8682 33.2194 8.00015C32.8946 8.13211 32.599 8.32674 32.3494 8.57295C32.0999 8.81915 31.9012 9.1121 31.7649 9.43508C31.6285 9.75805 31.5571 10.1047 31.5547 10.4553C31.5523 10.8059 31.619 11.1535 31.751 11.4783C31.8829 11.8031 32.0776 12.0987 32.3238 12.3483C32.57 12.5978 32.8629 12.7965 33.1859 12.9328C33.5089 13.0692 33.8555 13.1406 34.2061 13.143C34.9141 13.1478 35.595 12.8712 36.0991 12.3739C36.6031 11.8767 36.889 11.1996 36.8938 10.4916C36.8986 9.78358 36.622 9.10266 36.1248 8.59862C35.6275 8.09458 34.9504 7.8087 34.2424 7.80389ZM22.3473 10.8432C20.8321 10.8092 19.3253 11.0771 17.9147 11.631C16.504 12.185 15.2176 13.0141 14.1304 14.07C13.0433 15.1259 12.177 16.3875 11.5821 17.7814C10.9871 19.1753 10.6755 20.6736 10.6652 22.1891C10.6548 23.7046 10.9461 25.207 11.522 26.6089C12.098 28.0108 12.947 29.284 14.0197 30.3546C15.0924 31.4252 16.3674 32.2717 17.7704 32.8448C19.1734 33.4179 20.6764 33.7062 22.1919 33.6928C25.1914 33.6664 28.0603 32.4616 30.1792 30.3384C32.2981 28.2153 33.4972 25.344 33.5176 22.3445C33.538 19.3449 32.3781 16.4577 30.2882 14.3059C28.1983 12.1541 25.3462 10.9104 22.3473 10.8432ZM22.32 14.8503C23.294 14.8569 24.2571 15.0553 25.1543 15.4341C26.0516 15.8129 26.8654 16.3648 27.5494 17.0581C28.2334 17.7515 28.7741 18.5728 29.1407 19.4751C29.5073 20.3774 29.6926 21.3431 29.686 22.317C29.6793 23.291 29.4809 24.2541 29.1021 25.1513C28.7233 26.0486 28.1715 26.8624 27.4781 27.5464C26.7848 28.2304 25.9635 28.7711 25.0611 29.1377C24.1588 29.5043 23.1931 29.6896 22.2192 29.683C20.2523 29.6696 18.3712 28.8754 16.9898 27.4751C15.6085 26.0748 14.8399 24.1831 14.8533 22.2162C14.8667 20.2493 15.6608 18.3682 17.0611 16.9868C18.4614 15.6055 20.3531 14.8369 22.32 14.8503Z" fill="#E09B3E"/>
</svg>
