<svg width="1444" height="154" viewBox="0 0 1444 154" fill="none" xmlns="http://www.w3.org/2000/svg" xmlns:xlink="http://www.w3.org/1999/xlink">
<rect width="1444" height="154" fill="url(#pattern0_634_1790)"/>
<defs>
<pattern id="pattern0_634_1790" patternUnits="userSpaceOnUse" patternTransform="matrix(1444 0 0 144 0 0)" preserveAspectRatio="none" viewBox="0 0 1444 144" width="1" height="1">
<g id="pattern0_634_1790_inner">
<rect width="1444" height="144" transform="matrix(-1 0 0 -1 1444 144)" fill="#FAF2EF"/>
<rect x="1444" y="144" width="46.125" height="144" transform="rotate(180 1444 144)" fill="#E09B3E" fill-opacity="0.61"/>
<rect x="1352.78" width="45.0927" height="144" fill="#FAF2EF"/>
<rect x="1352.78" y="144" width="45.0927" height="144" transform="rotate(180 1352.78 144)" fill="#E09B3E" fill-opacity="0.61"/>
<rect x="1262.6" width="45.0927" height="144" fill="#FAF2EF"/>
<rect x="1262.6" y="144" width="45.0927" height="144" transform="rotate(180 1262.6 144)" fill="#E09B3E" fill-opacity="0.61"/>
<rect x="1172.41" width="45.0927" height="144" fill="#FAF2EF"/>
<rect x="1172.41" y="144" width="45.0927" height="144" transform="rotate(180 1172.41 144)" fill="#E09B3E" fill-opacity="0.61"/>
<rect x="1082.23" width="45.0927" height="144" fill="#FAF2EF"/>
<rect x="1082.23" y="144" width="45.0927" height="144" transform="rotate(180 1082.23 144)" fill="#E09B3E" fill-opacity="0.61"/>
<rect x="992.041" width="45.0927" height="144" fill="#FAF2EF"/>
<rect x="992.041" y="144" width="45.0927" height="144" transform="rotate(180 992.041 144)" fill="#E09B3E" fill-opacity="0.61"/>
<rect x="901.855" width="45.0927" height="144" fill="#FAF2EF"/>
<rect x="901.855" y="144" width="45.0927" height="144" transform="rotate(180 901.855 144)" fill="#E09B3E" fill-opacity="0.61"/>
<rect x="811.67" width="45.0927" height="144" fill="#FAF2EF"/>
<rect x="811.67" y="144" width="45.0927" height="144" transform="rotate(180 811.67 144)" fill="#E09B3E" fill-opacity="0.61"/>
<rect x="721.484" width="45.0927" height="144" fill="#FAF2EF"/>
<rect x="721.484" y="144" width="45.0927" height="144" transform="rotate(180 721.484 144)" fill="#E09B3E" fill-opacity="0.61"/>
<rect x="631.299" width="45.0927" height="144" fill="#FAF2EF"/>
<rect x="631.299" y="144" width="45.0927" height="144" transform="rotate(180 631.299 144)" fill="#E09B3E" fill-opacity="0.61"/>
<rect x="541.113" width="45.0927" height="144" fill="#FAF2EF"/>
<rect x="541.113" y="144" width="45.0927" height="144" transform="rotate(180 541.113 144)" fill="#E09B3E" fill-opacity="0.61"/>
<rect x="450.928" width="45.0927" height="144" fill="#FAF2EF"/>
<rect x="450.928" y="144" width="45.0927" height="144" transform="rotate(180 450.928 144)" fill="#E09B3E" fill-opacity="0.61"/>
<rect x="360.742" width="45.0927" height="144" fill="#FAF2EF"/>
<rect x="360.742" y="144" width="45.0927" height="144" transform="rotate(180 360.742 144)" fill="#E09B3E" fill-opacity="0.61"/>
<rect x="270.557" width="45.0927" height="144" fill="#FAF2EF"/>
<rect x="270.557" y="144" width="45.0927" height="144" transform="rotate(180 270.557 144)" fill="#E09B3E" fill-opacity="0.61"/>
<rect x="180.371" width="45.0927" height="144" fill="#FAF2EF"/>
<rect x="180.371" y="144" width="45.0927" height="144" transform="rotate(180 180.371 144)" fill="#E09B3E" fill-opacity="0.61"/>
<rect x="90.1855" width="45.0927" height="144" fill="#FAF2EF"/>
<rect x="90.1855" y="144" width="45.0927" height="144" transform="rotate(180 90.1855 144)" fill="#E09B3E" fill-opacity="0.61"/>
<rect width="45.0927" height="144" fill="#FAF2EF"/>
</g>
</pattern></defs>
</svg>
