<svg width="1444" height="154" viewBox="0 0 1444 154" fill="none" xmlns="http://www.w3.org/2000/svg" xmlns:xlink="http://www.w3.org/1999/xlink">
<rect width="1444" height="154" fill="url(#pattern0_634_1751)"/>
<defs>
<pattern id="pattern0_634_1751" patternUnits="userSpaceOnUse" patternTransform="matrix(1444 0 0 144 0 0)" preserveAspectRatio="none" viewBox="0 0 1444 144" width="1" height="1">
<g id="pattern0_634_1751_inner">
<rect width="1444" height="144" transform="matrix(-1 0 0 -1 1444 144)" fill="#FAF2EF"/>
<rect x="1398.88" width="45.125" height="144" fill="#FAF2EF"/>
<rect x="1398.88" y="144" width="45.125" height="144" transform="rotate(180 1398.88 144)" fill="#E09B3E" fill-opacity="0.61"/>
<rect x="1308.62" width="45.125" height="144" fill="#FAF2EF"/>
<rect x="1308.62" y="144" width="45.125" height="144" transform="rotate(180 1308.62 144)" fill="#E09B3E" fill-opacity="0.61"/>
<rect x="1218.38" width="45.125" height="144" fill="#FAF2EF"/>
<rect x="1218.38" y="144" width="45.125" height="144" transform="rotate(180 1218.38 144)" fill="#E09B3E" fill-opacity="0.61"/>
<rect x="1128.12" width="45.125" height="144" fill="#FAF2EF"/>
<rect x="1128.12" y="144" width="45.125" height="144" transform="rotate(180 1128.12 144)" fill="#E09B3E" fill-opacity="0.61"/>
<rect x="1037.88" width="45.125" height="144" fill="#FAF2EF"/>
<rect x="1037.88" y="144" width="45.125" height="144" transform="rotate(180 1037.88 144)" fill="#E09B3E" fill-opacity="0.61"/>
<rect x="947.625" width="45.125" height="144" fill="#FAF2EF"/>
<rect x="947.625" y="144" width="45.125" height="144" transform="rotate(180 947.625 144)" fill="#E09B3E" fill-opacity="0.61"/>
<rect x="857.375" width="45.125" height="144" fill="#FAF2EF"/>
<rect x="857.375" y="144" width="45.125" height="144" transform="rotate(180 857.375 144)" fill="#E09B3E" fill-opacity="0.61"/>
<rect x="767.125" width="45.125" height="144" fill="#FAF2EF"/>
<rect x="767.125" y="144" width="45.125" height="144" transform="rotate(180 767.125 144)" fill="#E09B3E" fill-opacity="0.61"/>
<rect x="676.875" width="45.125" height="144" fill="#FAF2EF"/>
<rect x="676.875" y="144" width="45.125" height="144" transform="rotate(180 676.875 144)" fill="#E09B3E" fill-opacity="0.61"/>
<rect x="586.625" width="45.125" height="144" fill="#FAF2EF"/>
<rect x="586.625" y="144" width="45.125" height="144" transform="rotate(180 586.625 144)" fill="#E09B3E" fill-opacity="0.61"/>
<rect x="496.375" width="45.125" height="144" fill="#FAF2EF"/>
<rect x="496.375" y="144" width="45.125" height="144" transform="rotate(180 496.375 144)" fill="#E09B3E" fill-opacity="0.61"/>
<rect x="406.125" width="45.125" height="144" fill="#FAF2EF"/>
<rect x="406.125" y="144" width="45.125" height="144" transform="rotate(180 406.125 144)" fill="#E09B3E" fill-opacity="0.61"/>
<rect x="315.875" width="45.125" height="144" fill="#FAF2EF"/>
<rect x="315.875" y="144" width="45.125" height="144" transform="rotate(180 315.875 144)" fill="#E09B3E" fill-opacity="0.61"/>
<rect x="225.625" width="45.125" height="144" fill="#FAF2EF"/>
<rect x="225.625" y="144" width="45.125" height="144" transform="rotate(180 225.625 144)" fill="#E09B3E" fill-opacity="0.61"/>
<rect x="135.375" width="45.125" height="144" fill="#FAF2EF"/>
<rect x="135.375" y="144" width="45.125" height="144" transform="rotate(180 135.375 144)" fill="#E09B3E" fill-opacity="0.61"/>
<rect x="45.125" width="45.125" height="144" fill="#FAF2EF"/>
<rect x="45.125" y="144" width="45.125" height="144" transform="rotate(180 45.125 144)" fill="#E09B3E" fill-opacity="0.61"/>
</g>
</pattern></defs>
</svg>
